<svg id="Layer_1" data-name="Layer 1" xmlns="http://www.w3.org/2000/svg" viewBox="0 0 107.13 33.5"><title>Bliss1</title><path d="M25,39.37H36.26c3.86,0,5.51-2.52,5.51-5s-2.11-4.54-5.23-4.54V25.15c7.07,0,10.64,4,10.64,9.22,0,2.25-1.37,5.41-3.62,6.15a8.69,8.69,0,0,1,7,8.17c0,5.23-3,9.26-10.78,9.26H25ZM39.8,53.27c4.13,0,5.37-2.11,5.37-4.58,0-3-2.76-4.64-6.79-4.64h-8v9.22Z" transform="translate(-10.57 -25.15)"/><path d="M57.83,26.8l5-.83V58h-5Z" transform="translate(-10.57 -25.15)"/><path d="M70.12,28a2.83,2.83,0,1,1,2.8,2.8A2.79,2.79,0,0,1,70.12,28Zm.55,6.15h5V58h-5Z" transform="translate(-10.57 -25.15)"/><path d="M81.27,56.39V51.53a12,12,0,0,0,7,2.71c3.16,0,4.77-1,4.77-2.53,0-1.74-1.61-2.79-4.41-4.35-3.12-1.75-6-3.26-6-7.21s3.53-6.61,7.84-6.61a12.16,12.16,0,0,1,6.15,1.56V40a8.42,8.42,0,0,0-5.55-2c-2.66,0-3.76.87-3.76,2.11,0,1.51,1.28,2,5.37,4.4,3.16,1.84,5,3.4,5,7s-2.71,7.2-9.36,7.2A12.75,12.75,0,0,1,81.27,56.39Z" transform="translate(-10.57 -25.15)"/><path d="M101.32,56.39V51.53a12,12,0,0,0,7,2.71c3.17,0,4.78-1,4.78-2.53,0-1.74-1.61-2.79-4.41-4.35-3.12-1.75-6-3.26-6-7.21s3.53-6.61,7.84-6.61a12.16,12.16,0,0,1,6.15,1.56V40a8.42,8.42,0,0,0-5.55-2c-2.66,0-3.76.87-3.76,2.11,0,1.51,1.28,2,5.37,4.4,3.16,1.84,5,3.4,5,7s-2.71,7.2-9.36,7.2A12.75,12.75,0,0,1,101.32,56.39Z" transform="translate(-10.57 -25.15)"/><path d="M16.67,39.37a2.34,2.34,0,0,1,0,4.55H25V39.37Z" transform="translate(-10.57 -25.15)"/><circle cx="2.31" cy="16.52" r="2.31"/></svg>